<svg width="28" height="28" viewBox="0 0 28 28" fill="none" xmlns="http://www.w3.org/2000/svg">
<path fill-rule="evenodd" clip-rule="evenodd" d="M8.75 21.875C8.26676 21.875 7.875 22.2668 7.875 22.75C7.875 23.2332 8.26676 23.625 8.75 23.625C9.23324 23.625 9.625 23.2332 9.625 22.75C9.625 22.2668 9.23324 21.875 8.75 21.875ZM6.125 22.75C6.125 21.3003 7.30024 20.125 8.75 20.125C10.1998 20.125 11.375 21.3003 11.375 22.75C11.375 24.1997 10.1998 25.375 8.75 25.375C7.30024 25.375 6.125 24.1997 6.125 22.75Z" fill="#003F70"/>
<path fill-rule="evenodd" clip-rule="evenodd" d="M19.25 21.8751C18.7667 21.8751 18.375 22.2668 18.375 22.7501C18.375 23.2333 18.7668 23.6251 19.25 23.6251C19.7332 23.6251 20.125 23.2333 20.125 22.7501C20.125 22.2668 19.7333 21.8751 19.25 21.8751ZM16.625 22.7501C16.625 21.3003 17.8003 20.1251 19.25 20.1251C20.6997 20.1251 21.875 21.3003 21.875 22.7501C21.875 24.1998 20.6997 25.3751 19.25 25.3751C17.8003 25.3751 16.625 24.1998 16.625 22.7501Z" fill="#003F70"/>
<path d="M2.62444 2.67454C2.16854 2.51425 1.66903 2.7539 1.50876 3.20979C1.34847 3.66568 1.58811 4.16519 2.044 4.32547L2.62444 2.67454ZM24.1017 11.5299L24.9586 11.7066L24.9597 11.7012L24.1017 11.5299ZM6.66031 11.3867V8.21143H4.91031V11.3867H6.66031ZM2.92918 2.78168L2.62444 2.67454L2.044 4.32547L2.34874 4.43262L2.92918 2.78168ZM12.7613 18.9583H18.948V17.2083H12.7613V18.9583ZM6.66031 8.21143C6.66031 7.38641 6.6615 6.69796 6.60094 6.1385C6.53826 5.55939 6.40244 5.03122 6.07347 4.54981L4.6286 5.53716C4.7339 5.69126 4.81522 5.90292 4.8611 6.32683C4.90912 6.77041 4.91031 7.34815 4.91031 8.21143H6.66031ZM2.34874 4.43262C3.12762 4.70646 3.6395 4.88793 4.01616 5.07274C4.36991 5.24632 4.52586 5.38682 4.6286 5.53716L6.07347 4.54981C5.74193 4.06464 5.3011 3.75391 4.78703 3.50167C4.29584 3.26066 3.66883 3.04173 2.92918 2.78168L2.34874 4.43262ZM4.91031 11.3867C4.91031 13.0813 4.92621 14.3032 5.08611 15.2368C5.25681 16.2335 5.59764 16.9471 6.23491 17.6192L7.50486 16.4152C7.13134 16.0213 6.92987 15.6354 6.81099 14.9414C6.6813 14.1841 6.66031 13.1238 6.66031 11.3867H4.91031ZM12.7613 17.2083C11.1084 17.2083 9.96146 17.2062 9.09734 17.0837C8.26339 16.9654 7.82283 16.7505 7.50486 16.4152L6.23491 17.6192C6.92775 18.35 7.80603 18.6682 8.85164 18.8164C9.86708 18.9604 11.1605 18.9583 12.7613 18.9583V17.2083ZM5.78531 8.01501H19.9378V6.26501H5.78531V8.01501ZM23.2446 11.3532L22.6616 14.1821L24.3756 14.5354L24.9586 11.7066L23.2446 11.3532ZM19.9378 8.01501C20.937 8.01501 21.8163 8.01617 22.5102 8.09374C22.8551 8.13229 23.1131 8.18584 23.2944 8.24956C23.4827 8.31573 23.5127 8.36649 23.4977 8.34679L24.8847 7.27975C24.6106 6.92343 24.2251 6.7217 23.8746 6.59852C23.517 6.47288 23.1127 6.40019 22.7047 6.35458C21.8929 6.26384 20.9045 6.26501 19.9378 6.26501V8.01501ZM24.9597 11.7012C25.1571 10.712 25.3248 9.88195 25.3659 9.21712C25.408 8.53322 25.3302 7.85887 24.8847 7.27975L23.4977 8.34679C23.57 8.44093 23.6499 8.61044 23.6191 9.1093C23.5872 9.62723 23.4511 10.3189 23.2436 11.3586L24.9597 11.7012ZM18.948 18.9583C19.8367 18.9583 20.5824 18.9599 21.1836 18.8862C21.8086 18.8098 22.3786 18.6426 22.8762 18.2371L21.7707 16.8805C21.6246 16.9995 21.4175 17.0946 20.971 17.1493C20.5006 17.2068 19.8805 17.2083 18.948 17.2083V18.9583ZM22.6616 14.1821C22.4733 15.0954 22.3466 15.7025 22.1953 16.1516C22.0517 16.5778 21.9167 16.7615 21.7707 16.8805L22.8762 18.2371C23.3738 17.8316 23.6526 17.307 23.8537 16.7104C24.0472 16.1364 24.1962 15.4057 24.3756 14.5354L22.6616 14.1821Z" fill="#003F70"/>
<path d="M11.084 10.5L11.7002 14.1375" stroke="#003F70" stroke-width="1.5" stroke-linecap="round"/>
<path d="M18.1162 10.5L17.5 14.1375" stroke="#003F70" stroke-width="1.5" stroke-linecap="round"/>
</svg>
