<svg width="32" height="32" viewBox="0 0 32 32" fill="none" xmlns="http://www.w3.org/2000/svg">
<g id="Frame 33139" clip-path="url(#clip0_4033_5360)">
<path id="Star 1" d="M17.9248 4.72151C20.7011 3.74412 23.6951 5.47269 24.2368 8.36572L24.3484 8.96198C24.5497 10.037 25.1121 11.011 25.9424 11.7228L26.4029 12.1176C28.6375 14.0332 28.6375 17.4904 26.4029 19.406L25.9424 19.8008C25.1121 20.5126 24.5497 21.4867 24.3484 22.5616L24.2368 23.1579C23.6951 26.0509 20.7011 27.7795 17.9248 26.8021L17.3526 26.6007C16.321 26.2375 15.1963 26.2375 14.1647 26.6007L13.5925 26.8021C10.8162 27.7795 7.82226 26.0509 7.28056 23.1579L7.16892 22.5616C6.96764 21.4867 6.40529 20.5126 5.57497 19.8008L5.11442 19.406C2.87983 17.4904 2.87983 14.0332 5.11442 12.1176L5.57497 11.7228C6.40529 11.011 6.96764 10.037 7.16892 8.96198L7.28057 8.36572C7.82226 5.47269 10.8162 3.74412 13.5925 4.72151L14.1647 4.92295C15.1963 5.28613 16.321 5.28613 17.3526 4.92295L17.9248 4.72151Z" fill="#85C776"/>
<path id="Vector 55" d="M10.9707 15.4822C10.9707 16.0176 13.6401 18.555 14.5423 19.3973C14.6933 19.5383 14.9325 19.5016 15.0383 19.3241C16.4977 16.8752 20.1436 11.6167 20.6344 11.6167" stroke="white" stroke-width="2.57699"/>
</g>
<defs>
<clipPath id="clip0_4033_5360">
<rect width="32" height="32" fill="white"/>
</clipPath>
</defs>
</svg>
