<svg width="48" height="48" viewBox="0 0 48 48" fill="none" xmlns="http://www.w3.org/2000/svg">
<g id="step_icon_5">
<g id="Location">
<path id="Vector" d="M11.1662 18.1668C14.2124 5.17356 33.1355 5.17356 36.1662 18.1668C37.8559 25.4092 28.6663 39.8335 23.6663 39.8335C18.6663 39.8335 9.47512 25.4153 11.1662 18.1668Z" stroke="#85C776" stroke-width="2.82"/>
<path id="Vector_2" d="M21.7681 16.8231C21.6666 17.0681 21.6666 17.3787 21.6666 18V19.2693C21.6666 19.2995 21.6666 19.3146 21.6572 19.324C21.6478 19.3333 21.6328 19.3333 21.6026 19.3333H20.3333C19.712 19.3333 19.4014 19.3333 19.1563 19.4348C18.8296 19.5702 18.5701 19.8297 18.4347 20.1564C18.3333 20.4015 18.3333 20.7121 18.3333 21.3333C18.3333 21.9546 18.3333 22.2652 18.4347 22.5102C18.5701 22.8369 18.8296 23.0965 19.1563 23.2318C19.4014 23.3333 19.712 23.3333 20.3333 23.3333H21.6026C21.6328 23.3333 21.6478 23.3333 21.6572 23.3427C21.6666 23.3521 21.6666 23.3672 21.6666 23.3973V24.6667C21.6666 25.2879 21.6666 25.5986 21.7681 25.8436C21.9034 26.1703 22.163 26.4298 22.4897 26.5652C22.7347 26.6667 23.0453 26.6667 23.6666 26.6667C24.2878 26.6667 24.5985 26.6667 24.8435 26.5652C25.1702 26.4298 25.4298 26.1703 25.5651 25.8436C25.6666 25.5986 25.6666 25.2879 25.6666 24.6667V23.3973C25.6666 23.3672 25.6666 23.3521 25.676 23.3427C25.6853 23.3333 25.7004 23.3333 25.7306 23.3333H26.9999C27.6212 23.3333 27.9318 23.3333 28.1768 23.2318C28.5035 23.0965 28.7631 22.8369 28.8984 22.5102C28.9999 22.2652 28.9999 21.9546 28.9999 21.3333C28.9999 20.7121 28.9999 20.4015 28.8984 20.1564C28.7631 19.8297 28.5035 19.5702 28.1768 19.4348C27.9318 19.3333 27.6212 19.3333 26.9999 19.3333H25.7306C25.7004 19.3333 25.6853 19.3333 25.676 19.324C25.6666 19.3146 25.6666 19.2995 25.6666 19.2693V18C25.6666 17.3787 25.6666 17.0681 25.5651 16.8231C25.4298 16.4964 25.1702 16.2368 24.8435 16.1015C24.5985 16 24.2878 16 23.6666 16C23.0453 16 22.7347 16 22.4897 16.1015C22.163 16.2368 21.9034 16.4964 21.7681 16.8231Z" stroke="#85C776" stroke-width="1.6"/>
</g>
</g>
</svg>
