<svg width="28" height="28" viewBox="0 0 28 28" fill="none" xmlns="http://www.w3.org/2000/svg">
<path d="M15.75 2.33333C15.75 2.33333 18.4724 2.58081 21.9372 6.04564C25.402 9.51046 25.6495 12.2328 25.6495 12.2328" stroke="#003F70" stroke-width="1.5" stroke-linecap="round"/>
<path d="M16.5742 6.45825C16.5742 6.45825 17.7292 6.78824 19.4616 8.52065C21.194 10.2531 21.524 11.408 21.524 11.408" stroke="#003F70" stroke-width="1.5" stroke-linecap="round"/>
<path d="M18.252 18.1343L18.7834 17.5749L17.5145 16.3697L16.9831 16.9292L18.252 18.1343ZM20.5319 17.3394L22.7608 18.6223L23.6338 17.1057L21.4049 15.8227L20.5319 17.3394ZM23.1909 21.2822L21.5336 23.0271L22.8024 24.2323L24.4598 22.4874L23.1909 21.2822ZM20.5364 23.5862C18.8622 23.7515 14.4939 23.6104 9.75238 18.6185L8.48354 19.8237C13.6511 25.2642 18.5805 25.5378 20.7083 25.3278L20.5364 23.5862ZM9.75238 18.6185C5.23024 13.8574 4.4717 9.84149 4.37715 8.08004L2.62967 8.17382C2.74546 10.3313 3.66151 14.747 8.48354 19.8237L9.75238 18.6185ZM11.357 10.8752L11.6916 10.5229L10.4227 9.31771L10.0881 9.66999L11.357 10.8752ZM11.9544 6.13681L10.4833 4.05607L9.05438 5.06637L10.5255 7.1471L11.9544 6.13681ZM5.50398 3.60749L3.67278 5.5354L4.94162 6.7406L6.77282 4.81269L5.50398 3.60749ZM10.7225 10.2726C10.0881 9.66999 10.0873 9.67084 10.0865 9.6717C10.0862 9.672 10.0854 9.67286 10.0848 9.67345C10.0837 9.67464 10.0826 9.67584 10.0815 9.67707C10.0792 9.67955 10.0768 9.68213 10.0743 9.68482C10.0694 9.6902 10.0642 9.69602 10.0588 9.7023C10.0479 9.71485 10.0359 9.7292 10.0231 9.74541C9.99742 9.77782 9.9684 9.81765 9.93796 9.8652C9.87694 9.96059 9.81074 10.0862 9.75468 10.2437C9.6407 10.5641 9.57858 10.9883 9.6562 11.518C9.8087 12.5588 10.4907 13.9585 12.2726 15.8345L13.5414 14.6293C11.8759 12.8757 11.4656 11.7957 11.3877 11.2643C11.3501 11.0079 11.3883 10.8728 11.4034 10.8304C11.4119 10.8066 11.4174 10.7999 11.412 10.8084C11.4094 10.8125 11.4041 10.8203 11.3953 10.8314C11.3909 10.837 11.3856 10.8434 11.3792 10.8507C11.3761 10.8544 11.3726 10.8582 11.3689 10.8623C11.3671 10.8644 11.3651 10.8665 11.3632 10.8686C11.3622 10.8697 11.3611 10.8708 11.3601 10.8719C11.3596 10.8724 11.3588 10.8732 11.3585 10.8735C11.3578 10.8744 11.357 10.8752 10.7225 10.2726ZM12.2726 15.8345C14.0493 17.705 15.3911 18.4403 16.4148 18.6066C16.9402 18.6919 17.3654 18.6237 17.6874 18.4968C17.8448 18.4347 17.9693 18.3618 18.0627 18.2956C18.1094 18.2624 18.1482 18.231 18.1795 18.2036C18.1953 18.1899 18.209 18.177 18.221 18.1654C18.2271 18.1596 18.2327 18.154 18.2378 18.1489C18.2404 18.1463 18.2429 18.1438 18.2452 18.1413C18.2464 18.1402 18.2475 18.139 18.2487 18.1378C18.2493 18.1372 18.2501 18.1363 18.2503 18.1361C18.2511 18.1351 18.252 18.1343 17.6175 17.5317C16.9831 16.9292 16.9839 16.9283 16.9847 16.9275C16.985 16.9272 16.9858 16.9264 16.9862 16.9258C16.9873 16.9247 16.9883 16.9237 16.9894 16.9226C16.9915 16.9205 16.9935 16.9184 16.9953 16.9164C16.9993 16.9126 17.003 16.9089 17.0065 16.9055C17.0135 16.8987 17.02 16.8929 17.0256 16.888C17.0366 16.8782 17.0449 16.8719 17.0503 16.8681C17.0613 16.8603 17.0601 16.863 17.0453 16.8688C17.0228 16.8777 16.9167 16.9152 16.6954 16.8792C16.2257 16.8029 15.2123 16.3884 13.5414 14.6293L12.2726 15.8345ZM10.4833 4.05607C9.30078 2.38356 6.93452 2.10139 5.50398 3.60749L6.77282 4.81269C7.3828 4.1705 8.45664 4.22095 9.05438 5.06637L10.4833 4.05607ZM4.37715 8.08004C4.35215 7.61419 4.555 7.14764 4.94162 6.7406L3.67278 5.5354C3.04762 6.19357 2.57246 7.10788 2.62967 8.17382L4.37715 8.08004ZM21.5336 23.0271C21.2081 23.3699 20.8675 23.5535 20.5364 23.5862L20.7083 25.3278C21.5799 25.2417 22.2852 24.7769 22.8024 24.2323L21.5336 23.0271ZM11.6916 10.5229C12.8204 9.33445 12.9003 7.47458 11.9544 6.13681L10.5255 7.1471C11.018 7.84368 10.9425 8.77046 10.4227 9.31771L11.6916 10.5229ZM22.7608 18.6223C23.7184 19.1736 23.9059 20.5296 23.1909 21.2822L24.4598 22.4874C25.9822 20.8845 25.5388 18.2022 23.6338 17.1057L22.7608 18.6223ZM18.7834 17.5749C19.233 17.1015 19.9337 16.9951 20.5319 17.3394L21.4049 15.8227C20.1233 15.085 18.5338 15.2965 17.5145 16.3697L18.7834 17.5749Z" fill="#003F70"/>
</svg>
