<svg width="28" height="28" viewBox="0 0 28 28" fill="none" xmlns="http://www.w3.org/2000/svg">
<g id="plus">
<path id="Vector (Stroke)" fill-rule="evenodd" clip-rule="evenodd" d="M13.9997 4.95825C14.4829 4.95825 14.8747 5.35 14.8747 5.83325V13.1249H22.1663C22.6496 13.1249 23.0413 13.5167 23.0413 13.9999C23.0413 14.4832 22.6496 14.8749 22.1663 14.8749H14.8747V22.1666C14.8747 22.6498 14.4829 23.0416 13.9997 23.0416C13.5164 23.0416 13.1247 22.6498 13.1247 22.1666V14.8749H5.83301C5.34976 14.8749 4.95801 14.4832 4.95801 13.9999C4.95801 13.5167 5.34976 13.1249 5.83301 13.1249H13.1247V5.83325C13.1247 5.35 13.5164 4.95825 13.9997 4.95825Z" fill="#64748B"/>
</g>
</svg>
