<svg width="28" height="28" viewBox="0 0 28 28" fill="none" xmlns="http://www.w3.org/2000/svg">
<path fill-rule="evenodd" clip-rule="evenodd" d="M14.0005 8.14331C12.3621 8.14331 11.0488 9.46482 11.0488 11.095C11.0488 12.6686 12.2781 13.9516 13.8356 14.0331C13.9429 14.0244 14.0573 14.0236 14.1684 14.033C15.7193 13.9501 16.942 12.6721 16.9522 11.0925C16.9508 9.46522 15.6281 8.14331 14.0005 8.14331ZM9.29883 11.095C9.29883 8.5018 11.3922 6.39331 14.0005 6.39331C16.5954 6.39331 18.7022 8.50006 18.7022 11.095V11.0999H18.7021C18.6879 13.6297 16.698 15.6983 14.1703 15.7845C14.119 15.7862 14.0676 15.7835 14.0167 15.7762C14.0218 15.7769 14.0228 15.7769 14.0195 15.7767C14.0165 15.7765 14.0115 15.7762 14.0049 15.7762C13.9905 15.7762 13.9773 15.7772 13.969 15.7782C13.9231 15.784 13.8769 15.7861 13.8307 15.7845C11.3074 15.6985 9.29883 13.633 9.29883 11.095Z" fill="#003F70"/>
<path fill-rule="evenodd" clip-rule="evenodd" d="M8.68806 20.3275C7.78949 20.9327 7.28722 21.6253 7.0915 22.2835C8.96539 23.8526 11.3677 24.7918 14.0001 24.7918C16.6324 24.7918 19.0348 23.8526 20.9086 22.2835C20.7128 21.625 20.2102 20.9321 19.3109 20.3267C17.8989 19.3823 15.979 18.8826 14.0088 18.8826C12.0394 18.8826 10.1129 19.3819 8.68806 20.3275ZM14.0088 17.1326C16.244 17.1326 18.5237 17.6944 20.285 18.8729L20.2869 18.8742C21.69 19.8183 22.5827 21.0998 22.7335 22.5176C22.7629 22.7939 22.6593 23.0678 22.4544 23.2554C20.2228 25.2989 17.2608 26.5418 14.0001 26.5418C10.7394 26.5418 7.77734 25.2989 5.54579 23.2554C5.34085 23.0678 5.23724 22.7939 5.26664 22.5176C5.41746 21.0998 6.31013 19.8183 7.71324 18.8742L7.71758 18.8712L7.71759 18.8713C9.48925 17.6945 11.7734 17.1326 14.0088 17.1326Z" fill="#003F70"/>
<path fill-rule="evenodd" clip-rule="evenodd" d="M1.45898 14C1.45898 7.07342 7.07408 1.45833 14.0006 1.45833C20.9272 1.45833 26.5423 7.07342 26.5423 14C26.5423 20.9265 20.9272 26.5417 14.0006 26.5417C7.07407 26.5417 1.45898 20.9265 1.45898 14ZM14.0006 3.20833C8.04057 3.20833 3.20898 8.03992 3.20898 14C3.20898 19.96 8.04058 24.7917 14.0006 24.7917C19.9607 24.7917 24.7923 19.96 24.7923 14C24.7923 8.03992 19.9607 3.20833 14.0006 3.20833Z" fill="#003F70"/>
</svg>
