 <svg xmlns="http://www.w3.org/2000/svg" width="20" height="20" viewBox="0 0 20 20" fill="#F7941D">
<g clipPath="url(#clip0_4167_2626)">
<path d="M8.86493 2.46083C9.3117 1.49224 10.6883 1.49224 11.1351 2.46083L12.5283 5.48135C12.7104 5.87611 13.0845 6.14792 13.5162 6.1991L16.8194 6.59075C17.8787 6.71634 18.3041 8.02557 17.5209 8.74979L15.0788 11.0082C14.7596 11.3034 14.6167 11.7432 14.7014 12.1696L15.3497 15.4321C15.5576 16.4783 14.4439 17.2875 13.5131 16.7665L10.6106 15.1418C10.2312 14.9294 9.76879 14.9294 9.38945 15.1418L6.48688 16.7665C5.55611 17.2875 4.44242 16.4783 4.6503 15.4321L5.29857 12.1696C5.38329 11.7432 5.24039 11.3034 4.92122 11.0082L2.47907 8.74978C1.69594 8.02557 2.12134 6.71634 3.18058 6.59075L6.4838 6.1991C6.91551 6.14792 7.28961 5.87611 7.4717 5.48135L8.86493 2.46083Z" fill="#F7941D"/>
</g>
<defs>
<clipPath id="clip0_4167_2626">
<rect width="20" height="20" fill="white"/>
</clipPath>
</defs>
</svg>